<mxfile host="app.diagrams.net" agent="Mozilla/5.0 (Windows NT 10.0; Win64; x64) AppleWebKit/537.36 (KHTML, like Gecko) Chrome/135.0.0.0 Safari/537.36" version="26.2.14">
  <diagram name="Page-1" id="2YBvvXClWsGukQMizWep">
    <mxGraphModel dx="1042" dy="527" grid="1" gridSize="10" guides="1" tooltips="1" connect="1" arrows="1" fold="1" page="1" pageScale="1" pageWidth="850" pageHeight="1100" math="0" shadow="0">
      <root>
        <mxCell id="0" />
        <mxCell id="1" parent="0" />
        <mxCell id="4RWD9j6dD1hU_XloE_m2-2" value="" style="shape=umlLifeline;perimeter=lifelinePerimeter;whiteSpace=wrap;html=1;container=1;dropTarget=0;collapsible=0;recursiveResize=0;outlineConnect=0;portConstraint=eastwest;newEdgeStyle={&quot;curved&quot;:0,&quot;rounded&quot;:0};participant=umlActor;" parent="1" vertex="1">
          <mxGeometry x="50" y="40" width="20" height="300" as="geometry" />
        </mxCell>
        <mxCell id="4RWD9j6dD1hU_XloE_m2-15" value="" style="html=1;points=[[0,0,0,0,5],[0,1,0,0,-5],[1,0,0,0,5],[1,1,0,0,-5]];perimeter=orthogonalPerimeter;outlineConnect=0;targetShapes=umlLifeline;portConstraint=eastwest;newEdgeStyle={&quot;curved&quot;:0,&quot;rounded&quot;:0};" parent="4RWD9j6dD1hU_XloE_m2-2" vertex="1">
          <mxGeometry x="5" y="70" width="10" height="230" as="geometry" />
        </mxCell>
        <mxCell id="4RWD9j6dD1hU_XloE_m2-3" value="Player" style="text;html=1;align=center;verticalAlign=middle;whiteSpace=wrap;rounded=0;" parent="1" vertex="1">
          <mxGeometry x="30" y="10" width="60" height="140" as="geometry" />
        </mxCell>
        <mxCell id="4RWD9j6dD1hU_XloE_m2-12" value="" style="line;strokeWidth=1;fillColor=none;align=left;verticalAlign=middle;spacingTop=-1;spacingLeft=3;spacingRight=3;rotatable=0;labelPosition=right;points=[];portConstraint=eastwest;strokeColor=inherit;" parent="1" vertex="1">
          <mxGeometry x="40" y="100" width="780" height="8" as="geometry" />
        </mxCell>
        <mxCell id="4RWD9j6dD1hU_XloE_m2-13" value="Έναρξη παιχνιδιού" style="text;html=1;align=center;verticalAlign=middle;whiteSpace=wrap;rounded=0;" parent="1" vertex="1">
          <mxGeometry x="280" y="78" width="190" height="22" as="geometry" />
        </mxCell>
        <mxCell id="4RWD9j6dD1hU_XloE_m2-18" value="ξεκινά_παιχνίδι()" style="html=1;verticalAlign=bottom;startArrow=oval;endArrow=block;startSize=8;curved=0;rounded=0;" parent="1" edge="1">
          <mxGeometry relative="1" as="geometry">
            <mxPoint x="60" y="125" as="sourcePoint" />
            <mxPoint x="259.5" y="125" as="targetPoint" />
          </mxGeometry>
        </mxCell>
        <mxCell id="4RWD9j6dD1hU_XloE_m2-20" value="αρχικοποίηση_ταμπλό()" style="html=1;verticalAlign=bottom;startArrow=oval;startFill=1;endArrow=block;startSize=8;curved=0;rounded=0;" parent="1" edge="1">
          <mxGeometry width="60" relative="1" as="geometry">
            <mxPoint x="260" y="140" as="sourcePoint" />
            <mxPoint x="499.5" y="140" as="targetPoint" />
          </mxGeometry>
        </mxCell>
        <mxCell id="4RWD9j6dD1hU_XloE_m2-22" value="ρίχνει_ζάρια(ζάρια)" style="html=1;verticalAlign=bottom;startArrow=oval;startFill=1;endArrow=block;startSize=8;curved=0;rounded=0;" parent="1" edge="1">
          <mxGeometry width="60" relative="1" as="geometry">
            <mxPoint x="60" y="210" as="sourcePoint" />
            <mxPoint x="739.5" y="210" as="targetPoint" />
          </mxGeometry>
        </mxCell>
        <mxCell id="4RWD9j6dD1hU_XloE_m2-24" value="αριθμός βημάτων(αριθμόςβημάτων)" style="html=1;verticalAlign=bottom;endArrow=open;dashed=1;endSize=8;curved=0;rounded=0;" parent="1" edge="1">
          <mxGeometry x="0.4164" relative="1" as="geometry">
            <mxPoint x="740.17" y="240" as="sourcePoint" />
            <mxPoint x="259.83666666666676" y="240" as="targetPoint" />
            <mxPoint as="offset" />
          </mxGeometry>
        </mxCell>
        <mxCell id="4RWD9j6dD1hU_XloE_m2-25" value="ενημέρωση_θέσης_παίκτη(νέαθέση)" style="html=1;verticalAlign=bottom;startArrow=oval;startFill=1;endArrow=block;startSize=8;curved=0;rounded=0;" parent="1" edge="1">
          <mxGeometry width="60" relative="1" as="geometry">
            <mxPoint x="260" y="270" as="sourcePoint" />
            <mxPoint x="499.5" y="270" as="targetPoint" />
          </mxGeometry>
        </mxCell>
        <mxCell id="4RWD9j6dD1hU_XloE_m2-26" value="τοποθέτηση_παίκτη()" style="html=1;verticalAlign=bottom;endArrow=open;dashed=1;endSize=8;curved=0;rounded=0;" parent="1" edge="1">
          <mxGeometry relative="1" as="geometry">
            <mxPoint x="500" y="300" as="sourcePoint" />
            <mxPoint x="259.5" y="300" as="targetPoint" />
          </mxGeometry>
        </mxCell>
        <mxCell id="4RWD9j6dD1hU_XloE_m2-27" value="σειρά πρώτου παίκτη" style="html=1;verticalAlign=bottom;endArrow=open;dashed=1;endSize=8;curved=0;rounded=0;" parent="1" edge="1">
          <mxGeometry x="0.4983" relative="1" as="geometry">
            <mxPoint x="499.5000000000002" y="180" as="sourcePoint" />
            <mxPoint x="59.66666666666663" y="180" as="targetPoint" />
            <mxPoint as="offset" />
          </mxGeometry>
        </mxCell>
        <mxCell id="4RWD9j6dD1hU_XloE_m2-28" value="Έναρξη Παιχνιδιόυ" style="shape=umlFrame;whiteSpace=wrap;html=1;pointerEvents=0;width=90;height=26;" parent="1" vertex="1">
          <mxGeometry x="30" y="4" width="800" height="376" as="geometry" />
        </mxCell>
        <mxCell id="4RWD9j6dD1hU_XloE_m2-29" value="Ερώτηση για αγορά" style="html=1;verticalAlign=bottom;endArrow=open;dashed=1;endSize=8;curved=0;rounded=0;" parent="1" target="4RWD9j6dD1hU_XloE_m2-15" edge="1">
          <mxGeometry relative="1" as="geometry">
            <mxPoint x="260" y="320" as="sourcePoint" />
            <mxPoint x="180" y="320" as="targetPoint" />
          </mxGeometry>
        </mxCell>
        <mxCell id="7CB-O_dAAkWuCxmO0-9R-1" value="" style="shape=umlLifeline;perimeter=lifelinePerimeter;whiteSpace=wrap;html=1;container=1;dropTarget=0;collapsible=0;recursiveResize=0;outlineConnect=0;portConstraint=eastwest;newEdgeStyle={&quot;curved&quot;:0,&quot;rounded&quot;:0};participant=umlBoundary;" vertex="1" parent="1">
          <mxGeometry x="230" y="40" width="50" height="300" as="geometry" />
        </mxCell>
        <mxCell id="7CB-O_dAAkWuCxmO0-9R-2" value="" style="html=1;points=[[0,0,0,0,5],[0,1,0,0,-5],[1,0,0,0,5],[1,1,0,0,-5]];perimeter=orthogonalPerimeter;outlineConnect=0;targetShapes=umlLifeline;portConstraint=eastwest;newEdgeStyle={&quot;curved&quot;:0,&quot;rounded&quot;:0};" vertex="1" parent="7CB-O_dAAkWuCxmO0-9R-1">
          <mxGeometry x="20" y="40" width="10" height="260" as="geometry" />
        </mxCell>
        <mxCell id="7CB-O_dAAkWuCxmO0-9R-3" value="UI" style="text;align=center;fontStyle=1;verticalAlign=middle;spacingLeft=3;spacingRight=3;strokeColor=none;rotatable=0;points=[[0,0.5],[1,0.5]];portConstraint=eastwest;html=1;" vertex="1" parent="1">
          <mxGeometry x="220" y="14" width="80" height="26" as="geometry" />
        </mxCell>
        <mxCell id="7CB-O_dAAkWuCxmO0-9R-4" value="" style="shape=umlLifeline;perimeter=lifelinePerimeter;whiteSpace=wrap;html=1;container=1;dropTarget=0;collapsible=0;recursiveResize=0;outlineConnect=0;portConstraint=eastwest;newEdgeStyle={&quot;curved&quot;:0,&quot;rounded&quot;:0};participant=umlEntity;" vertex="1" parent="1">
          <mxGeometry x="480" y="40" width="40" height="300" as="geometry" />
        </mxCell>
        <mxCell id="7CB-O_dAAkWuCxmO0-9R-5" value="" style="html=1;points=[[0,0,0,0,5],[0,1,0,0,-5],[1,0,0,0,5],[1,1,0,0,-5]];perimeter=orthogonalPerimeter;outlineConnect=0;targetShapes=umlLifeline;portConstraint=eastwest;newEdgeStyle={&quot;curved&quot;:0,&quot;rounded&quot;:0};" vertex="1" parent="7CB-O_dAAkWuCxmO0-9R-4">
          <mxGeometry x="15" y="40" width="10" height="260" as="geometry" />
        </mxCell>
        <mxCell id="7CB-O_dAAkWuCxmO0-9R-6" value="Board" style="text;align=center;fontStyle=1;verticalAlign=middle;spacingLeft=3;spacingRight=3;strokeColor=none;rotatable=0;points=[[0,0.5],[1,0.5]];portConstraint=eastwest;html=1;" vertex="1" parent="1">
          <mxGeometry x="460" y="14" width="80" height="26" as="geometry" />
        </mxCell>
        <mxCell id="7CB-O_dAAkWuCxmO0-9R-7" value="" style="shape=umlLifeline;perimeter=lifelinePerimeter;whiteSpace=wrap;html=1;container=1;dropTarget=0;collapsible=0;recursiveResize=0;outlineConnect=0;portConstraint=eastwest;newEdgeStyle={&quot;curved&quot;:0,&quot;rounded&quot;:0};participant=umlEntity;" vertex="1" parent="1">
          <mxGeometry x="720" y="40" width="40" height="300" as="geometry" />
        </mxCell>
        <mxCell id="7CB-O_dAAkWuCxmO0-9R-8" value="" style="html=1;points=[[0,0,0,0,5],[0,1,0,0,-5],[1,0,0,0,5],[1,1,0,0,-5]];perimeter=orthogonalPerimeter;outlineConnect=0;targetShapes=umlLifeline;portConstraint=eastwest;newEdgeStyle={&quot;curved&quot;:0,&quot;rounded&quot;:0};" vertex="1" parent="7CB-O_dAAkWuCxmO0-9R-7">
          <mxGeometry x="15" y="170" width="10" height="30" as="geometry" />
        </mxCell>
        <mxCell id="7CB-O_dAAkWuCxmO0-9R-9" value="Dice" style="text;align=center;fontStyle=1;verticalAlign=middle;spacingLeft=3;spacingRight=3;strokeColor=none;rotatable=0;points=[[0,0.5],[1,0.5]];portConstraint=eastwest;html=1;" vertex="1" parent="1">
          <mxGeometry x="700" y="14" width="80" height="26" as="geometry" />
        </mxCell>
      </root>
    </mxGraphModel>
  </diagram>
</mxfile>
